<mxfile host="Electron" modified="2024-02-01T05:21:37.182Z" agent="Mozilla/5.0 (Windows NT 10.0; Win64; x64) AppleWebKit/537.36 (KHTML, like Gecko) draw.io/21.2.1 Chrome/112.0.5615.87 Electron/24.1.2 Safari/537.36" etag="-wD8osjVwWC_XjqnBD3m" version="21.2.1" type="device">
  <diagram name="Page-1" id="aUn1W-EV7tuT-PsDjz57">
    <mxGraphModel dx="2614" dy="2253" grid="1" gridSize="10" guides="1" tooltips="1" connect="1" arrows="1" fold="1" page="1" pageScale="1" pageWidth="850" pageHeight="1100" math="0" shadow="0">
      <root>
        <mxCell id="0" />
        <mxCell id="1" parent="0" />
        <mxCell id="1OdgZpJMKYCvz7Xs0OIa-13" style="edgeStyle=orthogonalEdgeStyle;rounded=0;orthogonalLoop=1;jettySize=auto;html=1;entryX=0.5;entryY=0.143;entryDx=0;entryDy=0;entryPerimeter=0;exitX=0.75;exitY=0;exitDx=0;exitDy=0;" parent="1" source="1OdgZpJMKYCvz7Xs0OIa-1" target="ARE739hNXR__0jzDL8JZ-11" edge="1">
          <mxGeometry relative="1" as="geometry">
            <Array as="points">
              <mxPoint x="420" y="70" />
              <mxPoint x="660" y="70" />
            </Array>
          </mxGeometry>
        </mxCell>
        <mxCell id="1OdgZpJMKYCvz7Xs0OIa-15" style="edgeStyle=orthogonalEdgeStyle;rounded=0;orthogonalLoop=1;jettySize=auto;html=1;entryX=0;entryY=0.5;entryDx=0;entryDy=0;exitX=0.5;exitY=1;exitDx=0;exitDy=0;" parent="1" source="1OdgZpJMKYCvz7Xs0OIa-1" target="1OdgZpJMKYCvz7Xs0OIa-14" edge="1">
          <mxGeometry relative="1" as="geometry">
            <Array as="points">
              <mxPoint x="390" y="410" />
            </Array>
          </mxGeometry>
        </mxCell>
        <mxCell id="ARE739hNXR__0jzDL8JZ-38" style="edgeStyle=orthogonalEdgeStyle;rounded=0;orthogonalLoop=1;jettySize=auto;html=1;exitX=0.25;exitY=0;exitDx=0;exitDy=0;entryX=0.5;entryY=1;entryDx=0;entryDy=0;" edge="1" parent="1" source="1OdgZpJMKYCvz7Xs0OIa-1" target="ARE739hNXR__0jzDL8JZ-34">
          <mxGeometry relative="1" as="geometry" />
        </mxCell>
        <mxCell id="ARE739hNXR__0jzDL8JZ-41" style="edgeStyle=orthogonalEdgeStyle;rounded=0;orthogonalLoop=1;jettySize=auto;html=1;exitX=1;exitY=0.5;exitDx=0;exitDy=0;entryX=0;entryY=0.5;entryDx=0;entryDy=0;" edge="1" parent="1" source="1OdgZpJMKYCvz7Xs0OIa-1" target="ARE739hNXR__0jzDL8JZ-35">
          <mxGeometry relative="1" as="geometry" />
        </mxCell>
        <mxCell id="1OdgZpJMKYCvz7Xs0OIa-1" value="Process handler" style="rounded=0;whiteSpace=wrap;html=1;" parent="1" vertex="1">
          <mxGeometry x="330" y="210" width="120" height="60" as="geometry" />
        </mxCell>
        <mxCell id="1OdgZpJMKYCvz7Xs0OIa-4" style="edgeStyle=orthogonalEdgeStyle;rounded=0;orthogonalLoop=1;jettySize=auto;html=1;startArrow=classic;startFill=1;" parent="1" source="1OdgZpJMKYCvz7Xs0OIa-2" target="1OdgZpJMKYCvz7Xs0OIa-3" edge="1">
          <mxGeometry relative="1" as="geometry">
            <Array as="points">
              <mxPoint x="690" y="-163" />
              <mxPoint x="840" y="-163" />
              <mxPoint x="840" y="-276" />
            </Array>
          </mxGeometry>
        </mxCell>
        <mxCell id="1OdgZpJMKYCvz7Xs0OIa-8" style="edgeStyle=orthogonalEdgeStyle;rounded=0;orthogonalLoop=1;jettySize=auto;html=1;entryX=0;entryY=0.5;entryDx=0;entryDy=0;" parent="1" source="1OdgZpJMKYCvz7Xs0OIa-2" target="1OdgZpJMKYCvz7Xs0OIa-7" edge="1">
          <mxGeometry relative="1" as="geometry" />
        </mxCell>
        <mxCell id="ARE739hNXR__0jzDL8JZ-4" style="edgeStyle=orthogonalEdgeStyle;rounded=0;orthogonalLoop=1;jettySize=auto;html=1;entryX=0.5;entryY=1;entryDx=0;entryDy=0;entryPerimeter=0;" edge="1" parent="1" source="1OdgZpJMKYCvz7Xs0OIa-2" target="ARE739hNXR__0jzDL8JZ-2">
          <mxGeometry relative="1" as="geometry">
            <Array as="points">
              <mxPoint x="630" y="-163" />
              <mxPoint x="485" y="-163" />
            </Array>
          </mxGeometry>
        </mxCell>
        <mxCell id="1OdgZpJMKYCvz7Xs0OIa-2" value="file watcher" style="rounded=0;whiteSpace=wrap;html=1;" parent="1" vertex="1">
          <mxGeometry x="600" y="-123" width="120" height="60" as="geometry" />
        </mxCell>
        <mxCell id="1OdgZpJMKYCvz7Xs0OIa-3" value="" style="sketch=0;outlineConnect=0;fontColor=#232F3E;gradientColor=none;fillColor=#3F8624;strokeColor=none;dashed=0;verticalLabelPosition=bottom;verticalAlign=top;align=center;html=1;fontSize=12;fontStyle=0;aspect=fixed;pointerEvents=1;shape=mxgraph.aws4.file_system;" parent="1" vertex="1">
          <mxGeometry x="800" y="-323" width="78" height="73" as="geometry" />
        </mxCell>
        <mxCell id="1OdgZpJMKYCvz7Xs0OIa-5" value="listen for add, remove &lt;br&gt;and update operations" style="text;html=1;align=center;verticalAlign=middle;resizable=0;points=[];autosize=1;strokeColor=none;fillColor=none;" parent="1" vertex="1">
          <mxGeometry x="690" y="-203" width="140" height="40" as="geometry" />
        </mxCell>
        <mxCell id="1OdgZpJMKYCvz7Xs0OIa-11" style="edgeStyle=orthogonalEdgeStyle;rounded=0;orthogonalLoop=1;jettySize=auto;html=1;entryX=0.5;entryY=0;entryDx=0;entryDy=0;entryPerimeter=0;" parent="1" source="1OdgZpJMKYCvz7Xs0OIa-7" target="1OdgZpJMKYCvz7Xs0OIa-10" edge="1">
          <mxGeometry relative="1" as="geometry" />
        </mxCell>
        <mxCell id="1OdgZpJMKYCvz7Xs0OIa-7" value="event recived?" style="rhombus;whiteSpace=wrap;html=1;" parent="1" vertex="1">
          <mxGeometry x="890" y="-133" width="80" height="80" as="geometry" />
        </mxCell>
        <mxCell id="1OdgZpJMKYCvz7Xs0OIa-10" value="file_events&lt;br&gt;database" style="shape=cylinder3;whiteSpace=wrap;html=1;boundedLbl=1;backgroundOutline=1;size=15;" parent="1" vertex="1">
          <mxGeometry x="900" y="200" width="60" height="80" as="geometry" />
        </mxCell>
        <mxCell id="1OdgZpJMKYCvz7Xs0OIa-12" value="store &lt;br&gt;the event" style="text;html=1;align=center;verticalAlign=middle;resizable=0;points=[];autosize=1;strokeColor=none;fillColor=none;" parent="1" vertex="1">
          <mxGeometry x="930" y="-40" width="70" height="40" as="geometry" />
        </mxCell>
        <mxCell id="ARE739hNXR__0jzDL8JZ-12" style="edgeStyle=orthogonalEdgeStyle;rounded=0;orthogonalLoop=1;jettySize=auto;html=1;entryX=0;entryY=0.5;entryDx=0;entryDy=0;" edge="1" parent="1" source="1OdgZpJMKYCvz7Xs0OIa-14" target="1OdgZpJMKYCvz7Xs0OIa-19">
          <mxGeometry relative="1" as="geometry" />
        </mxCell>
        <mxCell id="ARE739hNXR__0jzDL8JZ-13" style="edgeStyle=orthogonalEdgeStyle;rounded=0;orthogonalLoop=1;jettySize=auto;html=1;entryX=0.5;entryY=0;entryDx=0;entryDy=0;entryPerimeter=0;" edge="1" parent="1" source="1OdgZpJMKYCvz7Xs0OIa-14" target="ARE739hNXR__0jzDL8JZ-7">
          <mxGeometry relative="1" as="geometry" />
        </mxCell>
        <mxCell id="1OdgZpJMKYCvz7Xs0OIa-14" value="cron job scheduler" style="rounded=0;whiteSpace=wrap;html=1;" parent="1" vertex="1">
          <mxGeometry x="600" y="380" width="120" height="60" as="geometry" />
        </mxCell>
        <mxCell id="1OdgZpJMKYCvz7Xs0OIa-16" value="start the &lt;br&gt;cron job" style="text;html=1;align=center;verticalAlign=middle;resizable=0;points=[];autosize=1;strokeColor=none;fillColor=none;" parent="1" vertex="1">
          <mxGeometry x="390" y="353" width="70" height="40" as="geometry" />
        </mxCell>
        <mxCell id="1OdgZpJMKYCvz7Xs0OIa-18" value="read the &lt;br&gt;content" style="text;html=1;align=center;verticalAlign=middle;resizable=0;points=[];autosize=1;strokeColor=none;fillColor=none;" parent="1" vertex="1">
          <mxGeometry x="860" y="298" width="70" height="40" as="geometry" />
        </mxCell>
        <mxCell id="1OdgZpJMKYCvz7Xs0OIa-22" style="edgeStyle=orthogonalEdgeStyle;rounded=0;orthogonalLoop=1;jettySize=auto;html=1;entryX=0.5;entryY=0;entryDx=0;entryDy=0;" parent="1" source="1OdgZpJMKYCvz7Xs0OIa-19" target="1OdgZpJMKYCvz7Xs0OIa-21" edge="1">
          <mxGeometry relative="1" as="geometry">
            <Array as="points">
              <mxPoint x="920" y="640" />
            </Array>
          </mxGeometry>
        </mxCell>
        <mxCell id="1OdgZpJMKYCvz7Xs0OIa-25" style="edgeStyle=orthogonalEdgeStyle;rounded=0;orthogonalLoop=1;jettySize=auto;html=1;entryX=1;entryY=0.5;entryDx=0;entryDy=0;entryPerimeter=0;" parent="1" source="1OdgZpJMKYCvz7Xs0OIa-19" target="1OdgZpJMKYCvz7Xs0OIa-10" edge="1">
          <mxGeometry relative="1" as="geometry">
            <Array as="points">
              <mxPoint x="1040" y="410" />
              <mxPoint x="1040" y="240" />
            </Array>
          </mxGeometry>
        </mxCell>
        <mxCell id="ARE739hNXR__0jzDL8JZ-18" style="edgeStyle=orthogonalEdgeStyle;rounded=0;orthogonalLoop=1;jettySize=auto;html=1;entryX=0.5;entryY=1;entryDx=0;entryDy=0;entryPerimeter=0;" edge="1" parent="1" source="1OdgZpJMKYCvz7Xs0OIa-19" target="1OdgZpJMKYCvz7Xs0OIa-10">
          <mxGeometry relative="1" as="geometry">
            <Array as="points">
              <mxPoint x="930" y="360" />
              <mxPoint x="930" y="360" />
            </Array>
          </mxGeometry>
        </mxCell>
        <mxCell id="1OdgZpJMKYCvz7Xs0OIa-19" value="cron jon" style="rounded=0;whiteSpace=wrap;html=1;" parent="1" vertex="1">
          <mxGeometry x="865" y="380" width="120" height="60" as="geometry" />
        </mxCell>
        <mxCell id="1OdgZpJMKYCvz7Xs0OIa-21" value="job_runs database" style="shape=datastore;whiteSpace=wrap;html=1;" parent="1" vertex="1">
          <mxGeometry x="890" y="640" width="60" height="60" as="geometry" />
        </mxCell>
        <mxCell id="1OdgZpJMKYCvz7Xs0OIa-23" value="store the &lt;br&gt;run details" style="text;html=1;align=center;verticalAlign=middle;resizable=0;points=[];autosize=1;strokeColor=none;fillColor=none;" parent="1" vertex="1">
          <mxGeometry x="920" y="520" width="80" height="40" as="geometry" />
        </mxCell>
        <mxCell id="1OdgZpJMKYCvz7Xs0OIa-26" value="truncate the database &lt;br&gt;since previous events &lt;br&gt;are not required" style="text;html=1;align=center;verticalAlign=middle;resizable=0;points=[];autosize=1;strokeColor=none;fillColor=none;" parent="1" vertex="1">
          <mxGeometry x="1040" y="290" width="140" height="60" as="geometry" />
        </mxCell>
        <mxCell id="1OdgZpJMKYCvz7Xs0OIa-30" style="edgeStyle=orthogonalEdgeStyle;rounded=0;orthogonalLoop=1;jettySize=auto;html=1;entryX=0;entryY=0.5;entryDx=0;entryDy=0;" parent="1" source="1OdgZpJMKYCvz7Xs0OIa-27" target="1OdgZpJMKYCvz7Xs0OIa-21" edge="1">
          <mxGeometry relative="1" as="geometry">
            <Array as="points">
              <mxPoint x="120" y="670" />
            </Array>
          </mxGeometry>
        </mxCell>
        <mxCell id="1OdgZpJMKYCvz7Xs0OIa-27" value="REST API server" style="rounded=0;whiteSpace=wrap;html=1;" parent="1" vertex="1">
          <mxGeometry x="60" y="423" width="120" height="60" as="geometry" />
        </mxCell>
        <mxCell id="1OdgZpJMKYCvz7Xs0OIa-31" value="query the database to&lt;br&gt;&amp;nbsp;get the job run details" style="text;html=1;align=center;verticalAlign=middle;resizable=0;points=[];autosize=1;strokeColor=none;fillColor=none;" parent="1" vertex="1">
          <mxGeometry x="110" y="520" width="140" height="40" as="geometry" />
        </mxCell>
        <mxCell id="ARE739hNXR__0jzDL8JZ-2" value="{&lt;br&gt;&quot;dirOrFileToWatch&quot;: &quot;&quot;,&lt;br&gt;&quot;frequencyInSecond&quot;: 5&lt;br&gt;}" style="whiteSpace=wrap;html=1;shape=mxgraph.basic.document" vertex="1" parent="1">
          <mxGeometry x="400" y="-293" width="170" height="70" as="geometry" />
        </mxCell>
        <mxCell id="ARE739hNXR__0jzDL8JZ-3" value="file watcher&lt;br&gt;config" style="text;html=1;align=center;verticalAlign=middle;resizable=0;points=[];autosize=1;strokeColor=none;fillColor=none;" vertex="1" parent="1">
          <mxGeometry x="440" y="-333" width="80" height="40" as="geometry" />
        </mxCell>
        <mxCell id="ARE739hNXR__0jzDL8JZ-5" value="read the &lt;br&gt;config" style="text;html=1;align=center;verticalAlign=middle;resizable=0;points=[];autosize=1;strokeColor=none;fillColor=none;" vertex="1" parent="1">
          <mxGeometry x="530" y="-203" width="70" height="40" as="geometry" />
        </mxCell>
        <mxCell id="ARE739hNXR__0jzDL8JZ-6" value="file and folders to watch" style="text;html=1;align=center;verticalAlign=middle;resizable=0;points=[];autosize=1;strokeColor=none;fillColor=none;" vertex="1" parent="1">
          <mxGeometry x="764" y="-363" width="150" height="30" as="geometry" />
        </mxCell>
        <mxCell id="ARE739hNXR__0jzDL8JZ-7" value="{&lt;br&gt;&quot;cronExpression&lt;span style=&quot;background-color: initial;&quot;&gt;&quot;: &quot;&quot;,&lt;/span&gt;&lt;br&gt;&quot;magicString&lt;span style=&quot;background-color: initial;&quot;&gt;&quot;: &quot;&quot;&lt;/span&gt;&lt;br&gt;}" style="whiteSpace=wrap;html=1;shape=mxgraph.basic.document" vertex="1" parent="1">
          <mxGeometry x="575" y="520" width="170" height="70" as="geometry" />
        </mxCell>
        <mxCell id="ARE739hNXR__0jzDL8JZ-8" value="cron job&lt;br&gt;config" style="text;html=1;align=center;verticalAlign=middle;resizable=0;points=[];autosize=1;strokeColor=none;fillColor=none;" vertex="1" parent="1">
          <mxGeometry x="625" y="590" width="70" height="40" as="geometry" />
        </mxCell>
        <mxCell id="ARE739hNXR__0jzDL8JZ-9" value="read the &lt;br&gt;config" style="text;html=1;align=center;verticalAlign=middle;resizable=0;points=[];autosize=1;strokeColor=none;fillColor=none;" vertex="1" parent="1">
          <mxGeometry x="660" y="460" width="70" height="40" as="geometry" />
        </mxCell>
        <mxCell id="ARE739hNXR__0jzDL8JZ-11" value="registers the files and dir to be watched&lt;br&gt;and listnes for the &lt;br&gt;registred events (like, create, delete, modify etc) &lt;br&gt;for regular interval of time" style="text;html=1;align=center;verticalAlign=middle;resizable=0;points=[];autosize=1;strokeColor=none;fillColor=none;" vertex="1" parent="1">
          <mxGeometry x="520" y="-70" width="280" height="70" as="geometry" />
        </mxCell>
        <mxCell id="ARE739hNXR__0jzDL8JZ-14" value="1" style="text;html=1;align=center;verticalAlign=middle;resizable=0;points=[];autosize=1;strokeColor=none;fillColor=none;" vertex="1" parent="1">
          <mxGeometry x="385" y="268" width="30" height="30" as="geometry" />
        </mxCell>
        <mxCell id="ARE739hNXR__0jzDL8JZ-15" value="3" style="text;html=1;align=center;verticalAlign=middle;resizable=0;points=[];autosize=1;strokeColor=none;fillColor=none;" vertex="1" parent="1">
          <mxGeometry x="330" y="180" width="30" height="30" as="geometry" />
        </mxCell>
        <mxCell id="ARE739hNXR__0jzDL8JZ-16" value="1" style="text;html=1;align=center;verticalAlign=middle;resizable=0;points=[];autosize=1;strokeColor=none;fillColor=none;" vertex="1" parent="1">
          <mxGeometry x="605" y="-155" width="30" height="30" as="geometry" />
        </mxCell>
        <mxCell id="ARE739hNXR__0jzDL8JZ-17" value="2" style="text;html=1;align=center;verticalAlign=middle;resizable=0;points=[];autosize=1;strokeColor=none;fillColor=none;" vertex="1" parent="1">
          <mxGeometry x="685" y="-155" width="30" height="30" as="geometry" />
        </mxCell>
        <mxCell id="ARE739hNXR__0jzDL8JZ-19" value="1" style="text;html=1;align=center;verticalAlign=middle;resizable=0;points=[];autosize=1;strokeColor=none;fillColor=none;" vertex="1" parent="1">
          <mxGeometry x="925" y="348" width="30" height="30" as="geometry" />
        </mxCell>
        <mxCell id="ARE739hNXR__0jzDL8JZ-20" value="2" style="text;html=1;align=center;verticalAlign=middle;resizable=0;points=[];autosize=1;strokeColor=none;fillColor=none;" vertex="1" parent="1">
          <mxGeometry x="985" y="378" width="30" height="30" as="geometry" />
        </mxCell>
        <mxCell id="ARE739hNXR__0jzDL8JZ-21" value="3" style="text;html=1;align=center;verticalAlign=middle;resizable=0;points=[];autosize=1;strokeColor=none;fillColor=none;" vertex="1" parent="1">
          <mxGeometry x="925" y="438" width="30" height="30" as="geometry" />
        </mxCell>
        <mxCell id="ARE739hNXR__0jzDL8JZ-22" value="database to store &lt;br&gt;the cron job run details" style="text;html=1;align=center;verticalAlign=middle;resizable=0;points=[];autosize=1;strokeColor=none;fillColor=none;" vertex="1" parent="1">
          <mxGeometry x="855" y="713" width="140" height="40" as="geometry" />
        </mxCell>
        <mxCell id="ARE739hNXR__0jzDL8JZ-24" style="edgeStyle=orthogonalEdgeStyle;rounded=0;orthogonalLoop=1;jettySize=auto;html=1;entryX=0;entryY=0.5;entryDx=0;entryDy=0;" edge="1" parent="1" source="ARE739hNXR__0jzDL8JZ-23" target="1OdgZpJMKYCvz7Xs0OIa-1">
          <mxGeometry relative="1" as="geometry" />
        </mxCell>
        <mxCell id="ARE739hNXR__0jzDL8JZ-26" style="edgeStyle=orthogonalEdgeStyle;rounded=0;orthogonalLoop=1;jettySize=auto;html=1;entryX=0.5;entryY=0;entryDx=0;entryDy=0;" edge="1" parent="1" source="ARE739hNXR__0jzDL8JZ-23" target="1OdgZpJMKYCvz7Xs0OIa-27">
          <mxGeometry relative="1" as="geometry" />
        </mxCell>
        <mxCell id="ARE739hNXR__0jzDL8JZ-23" value="Application&lt;br&gt;starter" style="rounded=0;whiteSpace=wrap;html=1;" vertex="1" parent="1">
          <mxGeometry x="60" y="210" width="120" height="60" as="geometry" />
        </mxCell>
        <mxCell id="ARE739hNXR__0jzDL8JZ-25" value="1" style="text;html=1;align=center;verticalAlign=middle;resizable=0;points=[];autosize=1;strokeColor=none;fillColor=none;" vertex="1" parent="1">
          <mxGeometry x="175" y="208" width="30" height="30" as="geometry" />
        </mxCell>
        <mxCell id="ARE739hNXR__0jzDL8JZ-27" value="2" style="text;html=1;align=center;verticalAlign=middle;resizable=0;points=[];autosize=1;strokeColor=none;fillColor=none;" vertex="1" parent="1">
          <mxGeometry x="115" y="268" width="30" height="30" as="geometry" />
        </mxCell>
        <mxCell id="ARE739hNXR__0jzDL8JZ-28" value="start the &lt;br&gt;API server&amp;nbsp;" style="text;html=1;align=center;verticalAlign=middle;resizable=0;points=[];autosize=1;strokeColor=none;fillColor=none;" vertex="1" parent="1">
          <mxGeometry x="120" y="330" width="80" height="40" as="geometry" />
        </mxCell>
        <mxCell id="ARE739hNXR__0jzDL8JZ-29" value="start the &lt;br&gt;process handler" style="text;html=1;align=center;verticalAlign=middle;resizable=0;points=[];autosize=1;strokeColor=none;fillColor=none;" vertex="1" parent="1">
          <mxGeometry x="200" y="200" width="110" height="40" as="geometry" />
        </mxCell>
        <mxCell id="ARE739hNXR__0jzDL8JZ-32" style="edgeStyle=orthogonalEdgeStyle;rounded=0;orthogonalLoop=1;jettySize=auto;html=1;entryX=0;entryY=0.5;entryDx=0;entryDy=0;" edge="1" parent="1" source="ARE739hNXR__0jzDL8JZ-30" target="1OdgZpJMKYCvz7Xs0OIa-27">
          <mxGeometry relative="1" as="geometry" />
        </mxCell>
        <mxCell id="ARE739hNXR__0jzDL8JZ-30" value="" style="sketch=0;outlineConnect=0;fontColor=#232F3E;gradientColor=none;fillColor=#232F3D;strokeColor=none;dashed=0;verticalLabelPosition=bottom;verticalAlign=top;align=center;html=1;fontSize=12;fontStyle=0;aspect=fixed;pointerEvents=1;shape=mxgraph.aws4.user;" vertex="1" parent="1">
          <mxGeometry x="-230" y="413" width="78" height="78" as="geometry" />
        </mxCell>
        <mxCell id="ARE739hNXR__0jzDL8JZ-31" value="user" style="text;html=1;align=center;verticalAlign=middle;resizable=0;points=[];autosize=1;strokeColor=none;fillColor=none;" vertex="1" parent="1">
          <mxGeometry x="-216" y="490" width="50" height="30" as="geometry" />
        </mxCell>
        <mxCell id="ARE739hNXR__0jzDL8JZ-33" value="http request to update configs &lt;br&gt;and get job run details" style="text;html=1;align=center;verticalAlign=middle;resizable=0;points=[];autosize=1;strokeColor=none;fillColor=none;" vertex="1" parent="1">
          <mxGeometry x="-140" y="413" width="180" height="40" as="geometry" />
        </mxCell>
        <mxCell id="ARE739hNXR__0jzDL8JZ-36" style="edgeStyle=orthogonalEdgeStyle;rounded=0;orthogonalLoop=1;jettySize=auto;html=1;entryX=0;entryY=0.5;entryDx=0;entryDy=0;exitX=1;exitY=0.5;exitDx=0;exitDy=0;" edge="1" parent="1" source="ARE739hNXR__0jzDL8JZ-34" target="1OdgZpJMKYCvz7Xs0OIa-2">
          <mxGeometry relative="1" as="geometry">
            <Array as="points">
              <mxPoint x="520" y="-93" />
              <mxPoint x="520" y="-93" />
            </Array>
          </mxGeometry>
        </mxCell>
        <mxCell id="ARE739hNXR__0jzDL8JZ-34" value="watch for changes in file_watcher config&lt;br&gt;and notify file watcher to reload the config file" style="rounded=0;whiteSpace=wrap;html=1;" vertex="1" parent="1">
          <mxGeometry x="275" y="-123" width="165" height="60" as="geometry" />
        </mxCell>
        <mxCell id="ARE739hNXR__0jzDL8JZ-43" style="edgeStyle=orthogonalEdgeStyle;rounded=0;orthogonalLoop=1;jettySize=auto;html=1;entryX=0.5;entryY=0;entryDx=0;entryDy=0;" edge="1" parent="1" source="ARE739hNXR__0jzDL8JZ-35" target="1OdgZpJMKYCvz7Xs0OIa-14">
          <mxGeometry relative="1" as="geometry" />
        </mxCell>
        <mxCell id="ARE739hNXR__0jzDL8JZ-35" value="watch for changes in cron_job config&lt;br&gt;and notify cron job scheduler to reload the config file" style="rounded=0;whiteSpace=wrap;html=1;" vertex="1" parent="1">
          <mxGeometry x="575" y="210" width="165" height="60" as="geometry" />
        </mxCell>
        <mxCell id="ARE739hNXR__0jzDL8JZ-37" value="notify &lt;br&gt;file watcher" style="text;html=1;align=center;verticalAlign=middle;resizable=0;points=[];autosize=1;strokeColor=none;fillColor=none;" vertex="1" parent="1">
          <mxGeometry x="480" y="-133" width="80" height="40" as="geometry" />
        </mxCell>
        <mxCell id="ARE739hNXR__0jzDL8JZ-39" value="2" style="text;html=1;align=center;verticalAlign=middle;resizable=0;points=[];autosize=1;strokeColor=none;fillColor=none;" vertex="1" parent="1">
          <mxGeometry x="420" y="178" width="30" height="30" as="geometry" />
        </mxCell>
        <mxCell id="ARE739hNXR__0jzDL8JZ-40" value="start file watcher" style="text;html=1;align=center;verticalAlign=middle;resizable=0;points=[];autosize=1;strokeColor=none;fillColor=none;" vertex="1" parent="1">
          <mxGeometry x="420" y="70" width="110" height="30" as="geometry" />
        </mxCell>
        <mxCell id="ARE739hNXR__0jzDL8JZ-42" value="4" style="text;html=1;align=center;verticalAlign=middle;resizable=0;points=[];autosize=1;strokeColor=none;fillColor=none;" vertex="1" parent="1">
          <mxGeometry x="450" y="210" width="30" height="30" as="geometry" />
        </mxCell>
        <mxCell id="ARE739hNXR__0jzDL8JZ-44" value="notify cron &lt;br&gt;job scheduler" style="text;html=1;align=center;verticalAlign=middle;resizable=0;points=[];autosize=1;strokeColor=none;fillColor=none;" vertex="1" parent="1">
          <mxGeometry x="660" y="308" width="90" height="40" as="geometry" />
        </mxCell>
      </root>
    </mxGraphModel>
  </diagram>
</mxfile>
